<svg width="153" height="134" viewBox="0 0 153 134" fill="none" xmlns="http://www.w3.org/2000/svg">
<path d="M44.9668 42.9752L62.6651 0H89.2124V1.77862H87.0964C85.1727 1.77862 83.6338 2.11512 82.4795 2.7881C81.6778 3.23676 81.0365 3.98986 80.5558 5.04742C80.2032 5.81656 80.0267 7.81953 80.0267 11.0563V54.0315C80.0267 57.3646 80.2032 59.4476 80.5558 60.2809C80.9085 61.1141 81.6297 61.8511 82.72 62.4921C83.81 63.1009 85.2688 63.4052 87.0964 63.4052H89.2124V65.1839H55.1626V63.4052H57.2786C59.2025 63.4052 60.7415 63.0689 61.8955 62.3959C62.6971 61.9471 63.3385 61.1781 63.8194 60.0886C64.1721 59.3193 64.3483 57.3003 64.3483 54.0315V5.72043L39.34 65.1839H38.1857L12.7927 6.15306V52.0606C12.7927 55.2654 12.8729 57.2363 13.0332 57.9733C13.45 59.5759 14.3477 60.8896 15.7264 61.9151C17.1371 62.9086 19.3334 63.4052 22.3151 63.4052V65.1839H0V63.4052H0.673302C2.11609 63.4375 3.46268 63.213 4.71312 62.7325C5.96353 62.2198 6.90935 61.5468 7.55061 60.7135C8.19183 59.8802 8.68879 58.7106 9.04148 57.2043C9.10559 56.8518 9.13765 55.2173 9.13765 52.301V11.0563C9.13765 7.75543 8.96132 5.70441 8.60863 4.90322C8.25596 4.06999 7.53457 3.34893 6.44446 2.74003C5.35435 2.09909 3.89554 1.77862 2.068 1.77862H0V0H26.6435L44.9668 42.9752ZM127.11 63.4052V65.1839H93.0118V63.4052H95.176C97.0676 63.4052 98.5907 63.0689 99.7447 62.3959C100.578 61.9471 101.22 61.1781 101.669 60.0886C102.021 59.3193 102.198 57.3003 102.198 54.0315V11.1524C102.198 7.81953 102.021 5.73646 101.669 4.90322C101.316 4.06999 100.595 3.34893 99.5042 2.74003C98.4462 2.09909 97.0036 1.77862 95.176 1.77862H93.0118V0H127.11V1.77862H124.946C123.054 1.77862 121.531 2.11512 120.377 2.7881C119.543 3.23676 118.886 4.00589 118.405 5.0955C118.052 5.86463 117.876 7.8836 117.876 11.1524V54.0315C117.876 57.3646 118.052 59.4476 118.405 60.2809C118.79 61.1141 119.511 61.8511 120.569 62.4921C121.659 63.1009 123.118 63.4052 124.946 63.4052H127.11ZM44.9668 111.343L62.6651 68.3674H89.2124V70.146H87.0964C85.1727 70.146 83.6338 70.4824 82.4795 71.1554C81.6778 71.6041 81.0365 72.3573 80.5558 73.4148C80.2032 74.184 80.0267 76.1869 80.0267 79.4237V122.399C80.0267 125.732 80.2032 127.815 80.5558 128.648C80.9085 129.481 81.6297 130.218 82.72 130.859C83.81 131.468 85.2688 131.773 87.0964 131.773H89.2124V133.551H55.1626V131.773H57.2786C59.2025 131.773 60.7415 131.436 61.8955 130.763C62.6971 130.314 63.3385 129.545 63.8194 128.456C64.1721 127.687 64.3483 125.668 64.3483 122.399V74.0878L39.34 133.551H38.1857L12.7927 74.5204V120.428C12.7927 123.633 12.8729 125.604 13.0332 126.341C13.45 127.943 14.3477 129.257 15.7264 130.282C17.1371 131.276 19.3334 131.773 22.3151 131.773V133.551H0V131.773H0.673302C2.11609 131.805 3.46268 131.58 4.71312 131.1C5.96353 130.587 6.90935 129.914 7.55061 129.081C8.19183 128.248 8.68879 127.078 9.04148 125.572C9.10559 125.219 9.13765 123.585 9.13765 120.668V79.4237C9.13765 76.1227 8.96132 74.0716 8.60863 73.2707C8.25596 72.4374 7.53457 71.7163 6.44446 71.1075C5.35435 70.4665 3.89554 70.146 2.068 70.146H0V68.3674H26.6435L44.9668 111.343ZM117.876 72.1169V98.6519H119.174C123.31 98.6519 126.308 97.354 128.168 94.7582C130.027 92.1625 131.214 88.3328 131.727 83.2692H133.554V117.4H131.727C131.342 113.682 130.524 110.638 129.274 108.266C128.056 105.895 126.629 104.308 124.993 103.507C123.358 102.674 120.986 102.257 117.876 102.257V120.62C117.876 124.21 118.02 126.405 118.309 127.206C118.629 128.007 119.206 128.664 120.04 129.177C120.874 129.69 122.22 129.946 124.08 129.946H127.975C134.067 129.946 138.941 128.536 142.596 125.716C146.283 122.896 148.928 118.601 150.531 112.833H152.31L149.377 133.551H93.0118V131.773H95.176C97.0676 131.773 98.5907 131.436 99.7447 130.763C100.578 130.314 101.22 129.545 101.669 128.456C102.021 127.687 102.198 125.668 102.198 122.399V79.5197C102.198 76.5714 102.117 74.7608 101.957 74.0878C101.636 72.966 101.043 72.1008 100.178 71.492C98.9592 70.5948 97.2919 70.146 95.176 70.146H93.0118V68.3674H147.597V87.6437H145.77C144.84 82.9329 143.525 79.5517 141.826 77.5007C140.159 75.4497 137.786 73.9437 134.708 72.9821C132.913 72.4054 129.546 72.1169 124.609 72.1169H117.876Z" fill="black"/>
</svg>
