<svg width="178" height="49" viewBox="0 0 178 49" fill="none" xmlns="http://www.w3.org/2000/svg">
<path d="M16.4355 15.7148L22.9043 0H32.6074V0.650391H31.834C31.1309 0.650391 30.5684 0.773438 30.1465 1.01953C29.8535 1.18359 29.6191 1.45898 29.4434 1.8457C29.3145 2.12695 29.25 2.85938 29.25 4.04297V19.7578C29.25 20.9766 29.3145 21.7383 29.4434 22.043C29.5723 22.3477 29.8359 22.6172 30.2344 22.8516C30.6328 23.0742 31.166 23.1855 31.834 23.1855H32.6074V23.8359H20.1621V23.1855H20.9355C21.6387 23.1855 22.2012 23.0625 22.623 22.8164C22.916 22.6523 23.1504 22.3711 23.3262 21.9727C23.4551 21.6914 23.5195 20.9531 23.5195 19.7578V2.0918L14.3789 23.8359H13.957L4.67578 2.25V19.0371C4.67578 20.209 4.70508 20.9297 4.76367 21.1992C4.91602 21.7852 5.24414 22.2656 5.74805 22.6406C6.26367 23.0039 7.06641 23.1855 8.15625 23.1855V23.8359H0V23.1855H0.246094C0.773438 23.1973 1.26562 23.1152 1.72266 22.9395C2.17969 22.752 2.52539 22.5059 2.75977 22.2012C2.99414 21.8965 3.17578 21.4688 3.30469 20.918C3.32812 20.7891 3.33984 20.1914 3.33984 19.125V4.04297C3.33984 2.83594 3.27539 2.08594 3.14648 1.79297C3.01758 1.48828 2.75391 1.22461 2.35547 1.00195C1.95703 0.767578 1.42383 0.650391 0.755859 0.650391H0V0H9.73828L16.4355 15.7148ZM46.459 23.1855V23.8359H33.9961V23.1855H34.7871C35.4785 23.1855 36.0352 23.0625 36.457 22.8164C36.7617 22.6523 36.9961 22.3711 37.1602 21.9727C37.2891 21.6914 37.3535 20.9531 37.3535 19.7578V4.07812C37.3535 2.85938 37.2891 2.09766 37.1602 1.79297C37.0312 1.48828 36.7676 1.22461 36.3691 1.00195C35.9824 0.767578 35.4551 0.650391 34.7871 0.650391H33.9961V0H46.459V0.650391H45.668C44.9766 0.650391 44.4199 0.773438 43.998 1.01953C43.6934 1.18359 43.4531 1.46484 43.2773 1.86328C43.1484 2.14453 43.084 2.88281 43.084 4.07812V19.7578C43.084 20.9766 43.1484 21.7383 43.2773 22.043C43.418 22.3477 43.6816 22.6172 44.0684 22.8516C44.4668 23.0742 45 23.1855 45.668 23.1855H46.459ZM16.4355 40.7148L22.9043 25H32.6074V25.6504H31.834C31.1309 25.6504 30.5684 25.7734 30.1465 26.0195C29.8535 26.1836 29.6191 26.459 29.4434 26.8457C29.3145 27.127 29.25 27.8594 29.25 29.043V44.7578C29.25 45.9766 29.3145 46.7383 29.4434 47.043C29.5723 47.3477 29.8359 47.6172 30.2344 47.8516C30.6328 48.0742 31.166 48.1855 31.834 48.1855H32.6074V48.8359H20.1621V48.1855H20.9355C21.6387 48.1855 22.2012 48.0625 22.623 47.8164C22.916 47.6523 23.1504 47.3711 23.3262 46.9727C23.4551 46.6914 23.5195 45.9531 23.5195 44.7578V27.0918L14.3789 48.8359H13.957L4.67578 27.25V44.0371C4.67578 45.209 4.70508 45.9297 4.76367 46.1992C4.91602 46.7852 5.24414 47.2656 5.74805 47.6406C6.26367 48.0039 7.06641 48.1855 8.15625 48.1855V48.8359H0V48.1855H0.246094C0.773438 48.1973 1.26562 48.1152 1.72266 47.9395C2.17969 47.752 2.52539 47.5059 2.75977 47.2012C2.99414 46.8965 3.17578 46.4688 3.30469 45.918C3.32812 45.7891 3.33984 45.1914 3.33984 44.125V29.043C3.33984 27.8359 3.27539 27.0859 3.14648 26.793C3.01758 26.4883 2.75391 26.2246 2.35547 26.002C1.95703 25.7676 1.42383 25.6504 0.755859 25.6504H0V25H9.73828L16.4355 40.7148ZM43.084 26.3711V36.0742H43.5586C45.0703 36.0742 46.166 35.5996 46.8457 34.6504C47.5254 33.7012 47.959 32.3008 48.1465 30.4492H48.8145V42.9297H48.1465C48.0059 41.5703 47.707 40.457 47.25 39.5898C46.8047 38.7227 46.2832 38.1426 45.6855 37.8496C45.0879 37.5449 44.2207 37.3926 43.084 37.3926V44.1074C43.084 45.4199 43.1367 46.2227 43.2422 46.5156C43.3594 46.8086 43.5703 47.0488 43.875 47.2363C44.1797 47.4238 44.6719 47.5176 45.3516 47.5176H46.7754C49.002 47.5176 50.7832 47.002 52.1191 45.9707C53.4668 44.9395 54.4336 43.3691 55.0195 41.2598H55.6699L54.5977 48.8359H33.9961V48.1855H34.7871C35.4785 48.1855 36.0352 48.0625 36.457 47.8164C36.7617 47.6523 36.9961 47.3711 37.1602 46.9727C37.2891 46.6914 37.3535 45.9531 37.3535 44.7578V29.0781C37.3535 28 37.3242 27.3379 37.2656 27.0918C37.1484 26.6816 36.9316 26.3652 36.6152 26.1426C36.1699 25.8145 35.5605 25.6504 34.7871 25.6504H33.9961V25H53.9473V32.0488H53.2793C52.9395 30.3262 52.459 29.0898 51.8379 28.3398C51.2285 27.5898 50.3613 27.0391 49.2363 26.6875C48.5801 26.4766 47.3496 26.3711 45.5449 26.3711H43.084Z" fill="black"/>
<path d="M66.7493 10.8359V1.03594H67.8973L72.2933 8.44194H71.6773L76.0173 1.03594H77.1653L77.1793 10.8359H75.8353L75.8213 3.14994H76.1433L72.2793 9.64594H71.6353L67.7433 3.14994H68.0933V10.8359H66.7493ZM83.2284 10.9199C82.4351 10.9199 81.7351 10.7566 81.1284 10.4299C80.5311 10.1033 80.0644 9.65527 79.7284 9.08594C79.4017 8.5166 79.2384 7.86327 79.2384 7.12594C79.2384 6.3886 79.3971 5.73527 79.7144 5.16594C80.0411 4.5966 80.4844 4.15327 81.0444 3.83594C81.6137 3.50927 82.2531 3.34594 82.9624 3.34594C83.6811 3.34594 84.3157 3.5046 84.8664 3.82194C85.4171 4.13927 85.8464 4.58727 86.1544 5.16594C86.4717 5.73527 86.6304 6.4026 86.6304 7.16794C86.6304 7.22394 86.6257 7.28927 86.6164 7.36394C86.6164 7.4386 86.6117 7.5086 86.6024 7.57394H80.2884V6.60794H85.9024L85.3564 6.94394C85.3657 6.46794 85.2677 6.04327 85.0624 5.66994C84.8571 5.2966 84.5724 5.00727 84.2084 4.80194C83.8537 4.58727 83.4384 4.47994 82.9624 4.47994C82.4957 4.47994 82.0804 4.58727 81.7164 4.80194C81.3524 5.00727 81.0677 5.30127 80.8624 5.68394C80.6571 6.05727 80.5544 6.4866 80.5544 6.97194V7.19594C80.5544 7.6906 80.6664 8.13394 80.8904 8.52594C81.1237 8.9086 81.4457 9.20727 81.8564 9.42194C82.2671 9.6366 82.7384 9.74394 83.2704 9.74394C83.7091 9.74394 84.1057 9.66927 84.4604 9.51994C84.8244 9.3706 85.1417 9.1466 85.4124 8.84794L86.1544 9.71594C85.8184 10.1079 85.3984 10.4066 84.8944 10.6119C84.3997 10.8173 83.8444 10.9199 83.2284 10.9199ZM97.7787 3.34594C98.376 3.34594 98.9033 3.4626 99.3607 3.69594C99.818 3.92927 100.173 4.28394 100.425 4.75994C100.686 5.23594 100.817 5.83794 100.817 6.56594V10.8359H99.4727V6.71994C99.4727 6.00127 99.3047 5.45994 98.9687 5.09594C98.6327 4.73194 98.1613 4.54994 97.5547 4.54994C97.1067 4.54994 96.7147 4.64327 96.3787 4.82994C96.0427 5.0166 95.7813 5.29194 95.5947 5.65594C95.4173 6.01994 95.3287 6.4726 95.3287 7.01394V10.8359H93.9847V6.71994C93.9847 6.00127 93.8167 5.45994 93.4807 5.09594C93.154 4.73194 92.6827 4.54994 92.0667 4.54994C91.628 4.54994 91.2407 4.64327 90.9047 4.82994C90.5687 5.0166 90.3073 5.29194 90.1207 5.65594C89.934 6.01994 89.8407 6.4726 89.8407 7.01394V10.8359H88.4967V3.41594H89.7847V5.38994L89.5747 4.88594C89.808 4.4006 90.1673 4.0226 90.6527 3.75194C91.138 3.48127 91.7027 3.34594 92.3467 3.34594C93.056 3.34594 93.6673 3.52327 94.1807 3.87794C94.694 4.22327 95.03 4.7506 95.1887 5.45994L94.6427 5.23594C94.8667 4.6666 95.2587 4.20927 95.8187 3.86394C96.3787 3.5186 97.032 3.34594 97.7787 3.34594ZM106.468 10.9199C105.721 10.9199 105.058 10.7566 104.48 10.4299C103.901 10.1033 103.444 9.65527 103.108 9.08594C102.772 8.50727 102.604 7.85394 102.604 7.12594C102.604 6.3886 102.772 5.73527 103.108 5.16594C103.444 4.5966 103.901 4.15327 104.48 3.83594C105.058 3.50927 105.721 3.34594 106.468 3.34594C107.205 3.34594 107.863 3.50927 108.442 3.83594C109.03 4.15327 109.487 4.5966 109.814 5.16594C110.15 5.72594 110.318 6.37927 110.318 7.12594C110.318 7.86327 110.15 8.5166 109.814 9.08594C109.487 9.65527 109.03 10.1033 108.442 10.4299C107.863 10.7566 107.205 10.9199 106.468 10.9199ZM106.468 9.74394C106.944 9.74394 107.368 9.6366 107.742 9.42194C108.124 9.20727 108.423 8.90394 108.638 8.51194C108.852 8.1106 108.96 7.6486 108.96 7.12594C108.96 6.59394 108.852 6.1366 108.638 5.75394C108.423 5.36194 108.124 5.0586 107.742 4.84394C107.368 4.62927 106.944 4.52194 106.468 4.52194C105.992 4.52194 105.567 4.62927 105.194 4.84394C104.82 5.0586 104.522 5.36194 104.298 5.75394C104.074 6.1366 103.962 6.59394 103.962 7.12594C103.962 7.6486 104.074 8.1106 104.298 8.51194C104.522 8.90394 104.82 9.20727 105.194 9.42194C105.567 9.6366 105.992 9.74394 106.468 9.74394ZM112.176 10.8359V3.41594H113.464V5.43194L113.338 4.92794C113.544 4.4146 113.889 4.0226 114.374 3.75194C114.86 3.48127 115.457 3.34594 116.166 3.34594V4.64794C116.11 4.6386 116.054 4.63394 115.998 4.63394C115.952 4.63394 115.905 4.63394 115.858 4.63394C115.14 4.63394 114.57 4.8486 114.15 5.27794C113.73 5.70727 113.52 6.32794 113.52 7.13994V10.8359H112.176ZM117.823 10.8359V3.41594H119.167V10.8359H117.823ZM118.495 1.98794C118.233 1.98794 118.014 1.90394 117.837 1.73594C117.669 1.56794 117.585 1.3626 117.585 1.11994C117.585 0.867937 117.669 0.657937 117.837 0.489937C118.014 0.321937 118.233 0.237937 118.495 0.237937C118.756 0.237937 118.971 0.321937 119.139 0.489937C119.316 0.648603 119.405 0.84927 119.405 1.09194C119.405 1.34394 119.321 1.5586 119.153 1.73594C118.985 1.90394 118.765 1.98794 118.495 1.98794ZM126.339 10.8359V9.26794L126.269 8.97394V6.29994C126.269 5.7306 126.101 5.29194 125.765 4.98394C125.438 4.6666 124.944 4.50794 124.281 4.50794C123.842 4.50794 123.413 4.5826 122.993 4.73194C122.573 4.87194 122.218 5.06327 121.929 5.30594L121.369 4.29794C121.752 3.98994 122.209 3.7566 122.741 3.59794C123.282 3.42994 123.847 3.34594 124.435 3.34594C125.452 3.34594 126.236 3.59327 126.787 4.08794C127.338 4.5826 127.613 5.3386 127.613 6.35594V10.8359H126.339ZM123.903 10.9199C123.352 10.9199 122.867 10.8266 122.447 10.6399C122.036 10.4533 121.719 10.1966 121.495 9.86994C121.271 9.53394 121.159 9.15594 121.159 8.73594C121.159 8.3346 121.252 7.9706 121.439 7.64394C121.635 7.31727 121.948 7.05594 122.377 6.85994C122.816 6.66394 123.404 6.56594 124.141 6.56594H126.493V7.53194H124.197C123.525 7.53194 123.072 7.64394 122.839 7.86794C122.606 8.09194 122.489 8.3626 122.489 8.67994C122.489 9.04394 122.634 9.33794 122.923 9.56194C123.212 9.7766 123.614 9.88394 124.127 9.88394C124.631 9.88394 125.07 9.77194 125.443 9.54794C125.826 9.32394 126.101 8.99727 126.269 8.56794L126.535 9.49194C126.358 9.9306 126.045 10.2806 125.597 10.5419C125.149 10.7939 124.584 10.9199 123.903 10.9199ZM130.1 10.8359V0.447937H131.444V10.8359H130.1ZM137.132 10.9199C136.498 10.9199 135.938 10.8033 135.452 10.5699C134.976 10.3366 134.603 9.98194 134.332 9.50594C134.071 9.0206 133.94 8.41394 133.94 7.68594V3.41594H135.284V7.53194C135.284 8.25994 135.457 8.80594 135.802 9.16994C136.157 9.53394 136.652 9.71594 137.286 9.71594C137.753 9.71594 138.159 9.6226 138.504 9.43594C138.85 9.23994 139.116 8.95994 139.302 8.59594C139.489 8.2226 139.582 7.7746 139.582 7.25194V3.41594H140.926V10.8359H139.652V8.83394L139.862 9.36594C139.62 9.8606 139.256 10.2433 138.77 10.5139C138.285 10.7846 137.739 10.9199 137.132 10.9199ZM143.485 10.8359V0.447937H144.829V10.8359H143.485ZM66.7493 24.8359V15.0359H68.1493V24.8359H66.7493ZM74.8213 24.9199C74.2053 24.9199 73.6406 24.7799 73.1273 24.4999C72.6233 24.2106 72.2173 23.7859 71.9093 23.2259C71.6106 22.6659 71.4613 21.9659 71.4613 21.1259C71.4613 20.2859 71.6059 19.5859 71.8953 19.0259C72.1939 18.4659 72.5953 18.0459 73.0993 17.7659C73.6126 17.4859 74.1866 17.3459 74.8213 17.3459C75.5493 17.3459 76.1933 17.5046 76.7533 17.8219C77.3133 18.1393 77.7566 18.5826 78.0833 19.1519C78.4099 19.7119 78.5733 20.3699 78.5733 21.1259C78.5733 21.8819 78.4099 22.5446 78.0833 23.1139C77.7566 23.6833 77.3133 24.1266 76.7533 24.4439C76.1933 24.7613 75.5493 24.9199 74.8213 24.9199ZM70.8873 27.5519V17.4159H72.1753V19.4179L72.0913 21.1399L72.2313 22.8619V27.5519H70.8873ZM74.7093 23.7439C75.1853 23.7439 75.6099 23.6366 75.9833 23.4219C76.3659 23.2073 76.6646 22.9039 76.8793 22.5119C77.1033 22.1106 77.2153 21.6486 77.2153 21.1259C77.2153 20.5939 77.1033 20.1366 76.8793 19.7539C76.6646 19.3619 76.3659 19.0586 75.9833 18.8439C75.6099 18.6293 75.1853 18.5219 74.7093 18.5219C74.2426 18.5219 73.8179 18.6293 73.4353 18.8439C73.0619 19.0586 72.7633 19.3619 72.5393 19.7539C72.3246 20.1366 72.2173 20.5939 72.2173 21.1259C72.2173 21.6486 72.3246 22.1106 72.5393 22.5119C72.7633 22.9039 73.0619 23.2073 73.4353 23.4219C73.8179 23.6366 74.2426 23.7439 74.7093 23.7439ZM83.6083 24.9199C82.8616 24.9199 82.1989 24.7566 81.6203 24.4299C81.0416 24.1033 80.5843 23.6553 80.2483 23.0859C79.9123 22.5073 79.7443 21.8539 79.7443 21.1259C79.7443 20.3886 79.9123 19.7353 80.2483 19.1659C80.5843 18.5966 81.0416 18.1533 81.6203 17.8359C82.1989 17.5093 82.8616 17.3459 83.6083 17.3459C84.3456 17.3459 85.0036 17.5093 85.5823 17.8359C86.1703 18.1533 86.6276 18.5966 86.9543 19.1659C87.2903 19.7259 87.4583 20.3793 87.4583 21.1259C87.4583 21.8633 87.2903 22.5166 86.9543 23.0859C86.6276 23.6553 86.1703 24.1033 85.5823 24.4299C85.0036 24.7566 84.3456 24.9199 83.6083 24.9199ZM83.6083 23.7439C84.0843 23.7439 84.5089 23.6366 84.8823 23.4219C85.2649 23.2073 85.5636 22.9039 85.7783 22.5119C85.9929 22.1106 86.1003 21.6486 86.1003 21.1259C86.1003 20.5939 85.9929 20.1366 85.7783 19.7539C85.5636 19.3619 85.2649 19.0586 84.8823 18.8439C84.5089 18.6293 84.0843 18.5219 83.6083 18.5219C83.1323 18.5219 82.7076 18.6293 82.3343 18.8439C81.9609 19.0586 81.6623 19.3619 81.4383 19.7539C81.2143 20.1366 81.1023 20.5939 81.1023 21.1259C81.1023 21.6486 81.2143 22.1106 81.4383 22.5119C81.6623 22.9039 81.9609 23.2073 82.3343 23.4219C82.7076 23.6366 83.1323 23.7439 83.6083 23.7439ZM91.865 24.9199C91.1183 24.9199 90.5396 24.7193 90.129 24.3179C89.7183 23.9166 89.513 23.3426 89.513 22.5959V15.7919H90.857V22.5399C90.857 22.9413 90.955 23.2493 91.151 23.4639C91.3563 23.6786 91.6456 23.7859 92.019 23.7859C92.439 23.7859 92.789 23.6693 93.069 23.4359L93.489 24.4019C93.2836 24.5793 93.0363 24.7099 92.747 24.7939C92.467 24.8779 92.173 24.9199 91.865 24.9199ZM88.253 18.5219V17.4159H92.985V18.5219H88.253ZM98.1718 24.9199C97.3784 24.9199 96.6784 24.7566 96.0718 24.4299C95.4744 24.1033 95.0078 23.6553 94.6718 23.0859C94.3451 22.5166 94.1818 21.8633 94.1818 21.1259C94.1818 20.3886 94.3404 19.7353 94.6578 19.1659C94.9844 18.5966 95.4278 18.1533 95.9878 17.8359C96.5571 17.5093 97.1964 17.3459 97.9058 17.3459C98.6244 17.3459 99.2591 17.5046 99.8098 17.8219C100.36 18.1393 100.79 18.5873 101.098 19.1659C101.415 19.7353 101.574 20.4026 101.574 21.1679C101.574 21.2239 101.569 21.2893 101.56 21.3639C101.56 21.4386 101.555 21.5086 101.546 21.5739H95.2318V20.6079H100.846L100.3 20.9439C100.309 20.4679 100.211 20.0433 100.006 19.6699C99.8004 19.2966 99.5158 19.0073 99.1518 18.8019C98.7971 18.5873 98.3818 18.4799 97.9058 18.4799C97.4391 18.4799 97.0238 18.5873 96.6598 18.8019C96.2958 19.0073 96.0111 19.3013 95.8058 19.6839C95.6004 20.0573 95.4978 20.4866 95.4978 20.9719V21.1959C95.4978 21.6906 95.6098 22.1339 95.8338 22.5259C96.0671 22.9086 96.3891 23.2073 96.7998 23.4219C97.2104 23.6366 97.6818 23.7439 98.2138 23.7439C98.6524 23.7439 99.0491 23.6693 99.4038 23.5199C99.7678 23.3706 100.085 23.1466 100.356 22.8479L101.098 23.7159C100.762 24.1079 100.342 24.4066 99.8378 24.6119C99.3431 24.8173 98.7878 24.9199 98.1718 24.9199ZM105.568 24.9199C104.952 24.9199 104.364 24.8359 103.804 24.6679C103.253 24.4999 102.819 24.2946 102.502 24.0519L103.062 22.9879C103.379 23.2026 103.771 23.3846 104.238 23.5339C104.705 23.6833 105.181 23.7579 105.666 23.7579C106.291 23.7579 106.739 23.6693 107.01 23.4919C107.29 23.3146 107.43 23.0673 107.43 22.7499C107.43 22.5166 107.346 22.3346 107.178 22.2039C107.01 22.0733 106.786 21.9753 106.506 21.9099C106.235 21.8446 105.932 21.7886 105.596 21.7419C105.26 21.6859 104.924 21.6206 104.588 21.5459C104.252 21.4619 103.944 21.3499 103.664 21.2099C103.384 21.0606 103.16 20.8599 102.992 20.6079C102.824 20.3466 102.74 20.0013 102.74 19.5719C102.74 19.1239 102.866 18.7319 103.118 18.3959C103.37 18.0599 103.725 17.8033 104.182 17.6259C104.649 17.4393 105.199 17.3459 105.834 17.3459C106.319 17.3459 106.809 17.4066 107.304 17.5279C107.808 17.6399 108.219 17.8033 108.536 18.0179L107.962 19.0819C107.626 18.8579 107.276 18.7039 106.912 18.6199C106.548 18.5359 106.184 18.4939 105.82 18.4939C105.232 18.4939 104.793 18.5919 104.504 18.7879C104.215 18.9746 104.07 19.2173 104.07 19.5159C104.07 19.7679 104.154 19.9639 104.322 20.1039C104.499 20.2346 104.723 20.3373 104.994 20.4119C105.274 20.4866 105.582 20.5519 105.918 20.6079C106.254 20.6546 106.59 20.7199 106.926 20.8039C107.262 20.8786 107.565 20.9859 107.836 21.1259C108.116 21.2659 108.34 21.4619 108.508 21.7139C108.685 21.9659 108.774 22.3019 108.774 22.7219C108.774 23.1699 108.643 23.5573 108.382 23.8839C108.121 24.2106 107.752 24.4673 107.276 24.6539C106.8 24.8313 106.231 24.9199 105.568 24.9199ZM105.288 27.9719C105.045 27.9719 104.821 27.9439 104.616 27.8879C104.411 27.8413 104.219 27.7666 104.042 27.6639L104.336 26.9779C104.485 27.0619 104.635 27.1226 104.784 27.1599C104.943 27.1973 105.111 27.2159 105.288 27.2159C105.559 27.2159 105.755 27.1646 105.876 27.0619C106.007 26.9686 106.072 26.8333 106.072 26.6559C106.072 26.4879 106.007 26.3526 105.876 26.2499C105.755 26.1566 105.554 26.1099 105.274 26.1099H104.896L105.246 24.7379H106.016L105.806 25.5359C106.207 25.5733 106.511 25.6993 106.716 25.9139C106.921 26.1286 107.024 26.3899 107.024 26.6979C107.024 27.0899 106.865 27.3979 106.548 27.6219C106.231 27.8553 105.811 27.9719 105.288 27.9719ZM113.002 24.9199C112.255 24.9199 111.676 24.7193 111.266 24.3179C110.855 23.9166 110.65 23.3426 110.65 22.5959V15.7919H111.994V22.5399C111.994 22.9413 112.092 23.2493 112.288 23.4639C112.493 23.6786 112.782 23.7859 113.156 23.7859C113.576 23.7859 113.926 23.6693 114.206 23.4359L114.626 24.4019C114.42 24.5793 114.173 24.7099 113.884 24.7939C113.604 24.8779 113.31 24.9199 113.002 24.9199ZM109.39 18.5219V17.4159H114.122V18.5219H109.39ZM116.251 24.8359V17.4159H117.595V24.8359H116.251ZM116.923 15.9879C116.661 15.9879 116.442 15.9039 116.265 15.7359C116.097 15.5679 116.013 15.3626 116.013 15.1199C116.013 14.8679 116.097 14.6579 116.265 14.4899C116.442 14.3219 116.661 14.2379 116.923 14.2379C117.184 14.2379 117.399 14.3219 117.567 14.4899C117.744 14.6486 117.833 14.8493 117.833 15.0919C117.833 15.3439 117.749 15.5586 117.581 15.7359C117.413 15.9039 117.193 15.9879 116.923 15.9879Z" fill="black"/>
<path d="M66.7493 47.8359V38.0359H67.8973L72.2933 45.4419H71.6773L76.0173 38.0359H77.1653L77.1793 47.8359H75.8353L75.8213 40.1499H76.1433L72.2793 46.6459H71.6353L67.7433 40.1499H68.0933V47.8359H66.7493ZM79.9244 47.8359V40.4159H81.2684V47.8359H79.9244ZM80.5964 38.9879C80.3351 38.9879 80.1157 38.9039 79.9384 38.7359C79.7704 38.5679 79.6864 38.3626 79.6864 38.1199C79.6864 37.8679 79.7704 37.6579 79.9384 37.4899C80.1157 37.3219 80.3351 37.2379 80.5964 37.2379C80.8577 37.2379 81.0724 37.3219 81.2404 37.4899C81.4177 37.6486 81.5064 37.8493 81.5064 38.0919C81.5064 38.3439 81.4224 38.5586 81.2544 38.7359C81.0864 38.9039 80.8671 38.9879 80.5964 38.9879ZM87.7965 40.3459C88.4032 40.3459 88.9352 40.4626 89.3925 40.6959C89.8592 40.9293 90.2232 41.2839 90.4845 41.7599C90.7459 42.2359 90.8765 42.8379 90.8765 43.5659V47.8359H89.5325V43.7199C89.5325 43.0013 89.3552 42.4599 89.0005 42.0959C88.6552 41.7319 88.1652 41.5499 87.5305 41.5499C87.0545 41.5499 86.6392 41.6433 86.2845 41.8299C85.9299 42.0166 85.6545 42.2919 85.4585 42.6559C85.2719 43.0199 85.1785 43.4726 85.1785 44.0139V47.8359H83.8345V37.4479H85.1785V42.4179L84.9125 41.8859C85.1552 41.4006 85.5285 41.0226 86.0325 40.7519C86.5365 40.4813 87.1245 40.3459 87.7965 40.3459ZM97.9698 47.8359V46.2679L97.8998 45.9739V43.2999C97.8998 42.7306 97.7318 42.2919 97.3958 41.9839C97.0692 41.6666 96.5745 41.5079 95.9118 41.5079C95.4732 41.5079 95.0438 41.5826 94.6238 41.7319C94.2038 41.8719 93.8492 42.0633 93.5598 42.3059L92.9998 41.2979C93.3825 40.9899 93.8398 40.7566 94.3718 40.5979C94.9132 40.4299 95.4778 40.3459 96.0658 40.3459C97.0832 40.3459 97.8672 40.5933 98.4178 41.0879C98.9685 41.5826 99.2438 42.3386 99.2438 43.3559V47.8359H97.9698ZM95.5338 47.9199C94.9832 47.9199 94.4978 47.8266 94.0778 47.6399C93.6672 47.4533 93.3498 47.1966 93.1258 46.8699C92.9018 46.5339 92.7898 46.1559 92.7898 45.7359C92.7898 45.3346 92.8832 44.9706 93.0698 44.6439C93.2658 44.3173 93.5785 44.0559 94.0078 43.8599C94.4465 43.6639 95.0345 43.5659 95.7718 43.5659H98.1238V44.5319H95.8278C95.1558 44.5319 94.7032 44.6439 94.4698 44.8679C94.2365 45.0919 94.1198 45.3626 94.1198 45.6799C94.1198 46.0439 94.2645 46.3379 94.5538 46.5619C94.8432 46.7766 95.2445 46.8839 95.7578 46.8839C96.2618 46.8839 96.7005 46.7719 97.0738 46.5479C97.4565 46.3239 97.7318 45.9973 97.8998 45.5679L98.1658 46.4919C97.9885 46.9306 97.6758 47.2806 97.2278 47.5419C96.7798 47.7939 96.2152 47.9199 95.5338 47.9199ZM101.731 47.8359V40.4159H103.075V47.8359H101.731ZM102.403 38.9879C102.142 38.9879 101.922 38.9039 101.745 38.7359C101.577 38.5679 101.493 38.3626 101.493 38.1199C101.493 37.8679 101.577 37.6579 101.745 37.4899C101.922 37.3219 102.142 37.2379 102.403 37.2379C102.664 37.2379 102.879 37.3219 103.047 37.4899C103.224 37.6486 103.313 37.8493 103.313 38.0919C103.313 38.3439 103.229 38.5586 103.061 38.7359C102.893 38.9039 102.674 38.9879 102.403 38.9879ZM110.871 42.2639H115.911V43.4539H110.871V42.2639ZM110.997 46.6179H116.709V47.8359H109.597V38.0359H116.513V39.2539H110.997V46.6179ZM128.062 40.3459C128.659 40.3459 129.187 40.4626 129.644 40.6959C130.101 40.9293 130.456 41.2839 130.708 41.7599C130.969 42.2359 131.1 42.8379 131.1 43.5659V47.8359H129.756V43.7199C129.756 43.0013 129.588 42.4599 129.252 42.0959C128.916 41.7319 128.445 41.5499 127.838 41.5499C127.39 41.5499 126.998 41.6433 126.662 41.8299C126.326 42.0166 126.065 42.2919 125.878 42.6559C125.701 43.0199 125.612 43.4726 125.612 44.0139V47.8359H124.268V43.7199C124.268 43.0013 124.1 42.4599 123.764 42.0959C123.437 41.7319 122.966 41.5499 122.35 41.5499C121.911 41.5499 121.524 41.6433 121.188 41.8299C120.852 42.0166 120.591 42.2919 120.404 42.6559C120.217 43.0199 120.124 43.4726 120.124 44.0139V47.8359H118.78V40.4159H120.068V42.3899L119.858 41.8859C120.091 41.4006 120.451 41.0226 120.936 40.7519C121.421 40.4813 121.986 40.3459 122.63 40.3459C123.339 40.3459 123.951 40.5233 124.464 40.8779C124.977 41.2233 125.313 41.7506 125.472 42.4599L124.926 42.2359C125.15 41.6666 125.542 41.2093 126.102 40.8639C126.662 40.5186 127.315 40.3459 128.062 40.3459ZM133.573 47.8359V40.4159H134.917V47.8359H133.573ZM134.245 38.9879C133.983 38.9879 133.764 38.9039 133.587 38.7359C133.419 38.5679 133.335 38.3626 133.335 38.1199C133.335 37.8679 133.419 37.6579 133.587 37.4899C133.764 37.3219 133.983 37.2379 134.245 37.2379C134.506 37.2379 134.721 37.3219 134.889 37.4899C135.066 37.6486 135.155 37.8493 135.155 38.0919C135.155 38.3439 135.071 38.5586 134.903 38.7359C134.735 38.9039 134.515 38.9879 134.245 38.9879ZM141.445 40.3459C142.052 40.3459 142.584 40.4626 143.041 40.6959C143.508 40.9293 143.872 41.2839 144.133 41.7599C144.394 42.2359 144.525 42.8379 144.525 43.5659V47.8359H143.181V43.7199C143.181 43.0013 143.004 42.4599 142.649 42.0959C142.304 41.7319 141.814 41.5499 141.179 41.5499C140.703 41.5499 140.288 41.6433 139.933 41.8299C139.578 42.0166 139.303 42.2919 139.107 42.6559C138.92 43.0199 138.827 43.4726 138.827 44.0139V47.8359H137.483V40.4159H138.771V42.4179L138.561 41.8859C138.804 41.4006 139.177 41.0226 139.681 40.7519C140.185 40.4813 140.773 40.3459 141.445 40.3459ZM150.316 47.9199C149.523 47.9199 148.823 47.7566 148.216 47.4299C147.619 47.1033 147.152 46.6553 146.816 46.0859C146.49 45.5166 146.326 44.8633 146.326 44.1259C146.326 43.3886 146.485 42.7353 146.802 42.1659C147.129 41.5966 147.572 41.1533 148.132 40.8359C148.702 40.5093 149.341 40.3459 150.05 40.3459C150.769 40.3459 151.404 40.5046 151.954 40.8219C152.505 41.1393 152.934 41.5873 153.242 42.1659C153.56 42.7353 153.718 43.4026 153.718 44.1679C153.718 44.2239 153.714 44.2893 153.704 44.3639C153.704 44.4386 153.7 44.5086 153.69 44.5739H147.376V43.6079H152.99L152.444 43.9439C152.454 43.4679 152.356 43.0433 152.15 42.6699C151.945 42.2966 151.66 42.0073 151.296 41.8019C150.942 41.5873 150.526 41.4799 150.05 41.4799C149.584 41.4799 149.168 41.5873 148.804 41.8019C148.44 42.0073 148.156 42.3013 147.95 42.6839C147.745 43.0573 147.642 43.4866 147.642 43.9719V44.1959C147.642 44.6906 147.754 45.1339 147.978 45.5259C148.212 45.9086 148.534 46.2073 148.944 46.4219C149.355 46.6366 149.826 46.7439 150.358 46.7439C150.797 46.7439 151.194 46.6693 151.548 46.5199C151.912 46.3706 152.23 46.1466 152.5 45.8479L153.242 46.7159C152.906 47.1079 152.486 47.4066 151.982 47.6119C151.488 47.8173 150.932 47.9199 150.316 47.9199ZM157.713 47.9199C157.097 47.9199 156.509 47.8359 155.949 47.6679C155.398 47.4999 154.964 47.2946 154.647 47.0519L155.207 45.9879C155.524 46.2026 155.916 46.3846 156.383 46.5339C156.849 46.6833 157.325 46.7579 157.811 46.7579C158.436 46.7579 158.884 46.6693 159.155 46.4919C159.435 46.3146 159.575 46.0673 159.575 45.7499C159.575 45.5166 159.491 45.3346 159.323 45.2039C159.155 45.0733 158.931 44.9753 158.651 44.9099C158.38 44.8446 158.077 44.7886 157.741 44.7419C157.405 44.6859 157.069 44.6206 156.733 44.5459C156.397 44.4619 156.089 44.3499 155.809 44.2099C155.529 44.0606 155.305 43.8599 155.137 43.6079C154.969 43.3466 154.885 43.0013 154.885 42.5719C154.885 42.1239 155.011 41.7319 155.263 41.3959C155.515 41.0599 155.869 40.8033 156.327 40.6259C156.793 40.4393 157.344 40.3459 157.979 40.3459C158.464 40.3459 158.954 40.4066 159.449 40.5279C159.953 40.6399 160.363 40.8033 160.681 41.0179L160.107 42.0819C159.771 41.8579 159.421 41.7039 159.057 41.6199C158.693 41.5359 158.329 41.4939 157.965 41.4939C157.377 41.4939 156.938 41.5919 156.649 41.7879C156.359 41.9746 156.215 42.2173 156.215 42.5159C156.215 42.7679 156.299 42.9639 156.467 43.1039C156.644 43.2346 156.868 43.3373 157.139 43.4119C157.419 43.4866 157.727 43.5519 158.063 43.6079C158.399 43.6546 158.735 43.7199 159.071 43.8039C159.407 43.8786 159.71 43.9859 159.981 44.1259C160.261 44.2659 160.485 44.4619 160.653 44.7139C160.83 44.9659 160.919 45.3019 160.919 45.7219C160.919 46.1699 160.788 46.5573 160.527 46.8839C160.265 47.2106 159.897 47.4673 159.421 47.6539C158.945 47.8313 158.375 47.9199 157.713 47.9199ZM165.832 47.9199C165.076 47.9199 164.4 47.7566 163.802 47.4299C163.214 47.1033 162.752 46.6553 162.416 46.0859C162.08 45.5166 161.912 44.8633 161.912 44.1259C161.912 43.3886 162.08 42.7353 162.416 42.1659C162.752 41.5966 163.214 41.1533 163.802 40.8359C164.4 40.5093 165.076 40.3459 165.832 40.3459C166.504 40.3459 167.102 40.4813 167.624 40.7519C168.156 41.0133 168.567 41.4053 168.856 41.9279L167.834 42.5859C167.592 42.2219 167.293 41.9559 166.938 41.7879C166.593 41.6106 166.22 41.5219 165.818 41.5219C165.333 41.5219 164.899 41.6293 164.516 41.8439C164.134 42.0586 163.83 42.3619 163.606 42.7539C163.382 43.1366 163.27 43.5939 163.27 44.1259C163.27 44.6579 163.382 45.1199 163.606 45.5119C163.83 45.9039 164.134 46.2073 164.516 46.4219C164.899 46.6366 165.333 46.7439 165.818 46.7439C166.22 46.7439 166.593 46.6599 166.938 46.4919C167.293 46.3146 167.592 46.0439 167.834 45.6799L168.856 46.3239C168.567 46.8373 168.156 47.2339 167.624 47.5139C167.102 47.7846 166.504 47.9199 165.832 47.9199ZM173.718 47.9199C173.084 47.9199 172.524 47.8033 172.038 47.5699C171.562 47.3366 171.189 46.9819 170.918 46.5059C170.657 46.0206 170.526 45.4139 170.526 44.6859V40.4159H171.87V44.5319C171.87 45.2599 172.043 45.8059 172.388 46.1699C172.743 46.5339 173.238 46.7159 173.872 46.7159C174.339 46.7159 174.745 46.6226 175.09 46.4359C175.436 46.2399 175.702 45.9599 175.888 45.5959C176.075 45.2226 176.168 44.7746 176.168 44.2519V40.4159H177.512V47.8359H176.238V45.8339L176.448 46.3659C176.206 46.8606 175.842 47.2433 175.356 47.5139C174.871 47.7846 174.325 47.9199 173.718 47.9199Z" fill="black"/>
<path d="M67.8153 34.8759C67.3993 34.8759 67.026 34.7853 66.6953 34.6039C66.37 34.4173 66.114 34.1639 65.9273 33.8439C65.7406 33.5186 65.6473 33.1479 65.6473 32.7319C65.6473 32.3106 65.7406 31.9399 65.9273 31.6199C66.114 31.2999 66.37 31.0493 66.6953 30.8679C67.026 30.6866 67.3993 30.5959 67.8153 30.5959C68.1726 30.5959 68.4953 30.6653 68.7833 30.8039C69.0713 30.9426 69.298 31.1506 69.4633 31.4279L69.0393 31.7159C68.8953 31.5026 68.7166 31.3453 68.5033 31.2439C68.29 31.1426 68.058 31.0919 67.8073 31.0919C67.5086 31.0919 67.2393 31.1613 66.9993 31.2999C66.7593 31.4333 66.57 31.6226 66.4313 31.8679C66.2926 32.1133 66.2233 32.4013 66.2233 32.7319C66.2233 33.0626 66.2926 33.3506 66.4313 33.5959C66.57 33.8413 66.7593 34.0333 66.9993 34.1719C67.2393 34.3053 67.5086 34.3719 67.8073 34.3719C68.058 34.3719 68.29 34.3213 68.5033 34.2199C68.7166 34.1186 68.8953 33.9639 69.0393 33.7559L69.4633 34.0439C69.298 34.3159 69.0713 34.5239 68.7833 34.6679C68.4953 34.8066 68.1726 34.8759 67.8153 34.8759ZM72.2928 34.8759C71.8555 34.8759 71.4715 34.7853 71.1408 34.6039C70.8101 34.4173 70.5515 34.1639 70.3648 33.8439C70.1781 33.5186 70.0848 33.1479 70.0848 32.7319C70.0848 32.3159 70.1728 31.9479 70.3488 31.6279C70.5301 31.3079 70.7755 31.0573 71.0848 30.8759C71.3995 30.6893 71.7515 30.5959 72.1408 30.5959C72.5355 30.5959 72.8848 30.6866 73.1888 30.8679C73.4981 31.0439 73.7408 31.2946 73.9168 31.6199C74.0928 31.9399 74.1808 32.3106 74.1808 32.7319C74.1808 32.7586 74.1781 32.7879 74.1728 32.8199C74.1728 32.8466 74.1728 32.8759 74.1728 32.9079H70.5168V32.4839H73.8688L73.6448 32.6519C73.6448 32.3479 73.5781 32.0786 73.4448 31.8439C73.3168 31.6039 73.1408 31.4173 72.9168 31.2839C72.6928 31.1506 72.4341 31.0839 72.1408 31.0839C71.8528 31.0839 71.5941 31.1506 71.3648 31.2839C71.1355 31.4173 70.9568 31.6039 70.8288 31.8439C70.7008 32.0839 70.6368 32.3586 70.6368 32.6679V32.7559C70.6368 33.0759 70.7061 33.3586 70.8448 33.6039C70.9888 33.8439 71.1861 34.0333 71.4368 34.1719C71.6928 34.3053 71.9835 34.3719 72.3088 34.3719C72.5648 34.3719 72.8021 34.3266 73.0208 34.2359C73.2448 34.1453 73.4368 34.0066 73.5968 33.8199L73.9168 34.1879C73.7301 34.4119 73.4955 34.5826 73.2128 34.6999C72.9355 34.8173 72.6288 34.8759 72.2928 34.8759ZM77.4809 30.5959C77.8223 30.5959 78.1209 30.6626 78.3769 30.7959C78.6383 30.9239 78.8409 31.1213 78.9849 31.3879C79.1343 31.6546 79.2089 31.9906 79.2089 32.3959V34.8359H78.6409V32.4519C78.6409 32.0093 78.5289 31.6759 78.3049 31.4519C78.0863 31.2226 77.7769 31.1079 77.3769 31.1079C77.0783 31.1079 76.8169 31.1693 76.5929 31.2919C76.3743 31.4093 76.2036 31.5826 76.0809 31.8119C75.9636 32.0359 75.9049 32.3079 75.9049 32.6279V34.8359H75.3369V30.6359H75.8809V31.7879L75.7929 31.5719C75.9263 31.2679 76.1396 31.0306 76.4329 30.8599C76.7263 30.6839 77.0756 30.5959 77.4809 30.5959ZM82.0712 34.8759C81.6765 34.8759 81.3725 34.7693 81.1592 34.5559C80.9458 34.3426 80.8392 34.0413 80.8392 33.6519V29.7079H81.4072V33.6199C81.4072 33.8653 81.4685 34.0546 81.5912 34.1879C81.7192 34.3213 81.9005 34.3879 82.1352 34.3879C82.3858 34.3879 82.5938 34.3159 82.7592 34.1719L82.9592 34.5799C82.8472 34.6813 82.7112 34.7559 82.5512 34.8039C82.3965 34.8519 82.2365 34.8759 82.0712 34.8759ZM80.0872 31.1079V30.6359H82.6872V31.1079H80.0872ZM83.9932 34.8359V30.6359H84.5372V31.7799L84.4812 31.5799C84.5985 31.2599 84.7958 31.0173 85.0732 30.8519C85.3505 30.6813 85.6945 30.5959 86.1052 30.5959V31.1479C86.0838 31.1479 86.0625 31.1479 86.0412 31.1479C86.0198 31.1426 85.9985 31.1399 85.9772 31.1399C85.5345 31.1399 85.1878 31.2759 84.9372 31.5479C84.6865 31.8146 84.5612 32.1959 84.5612 32.6919V34.8359H83.9932ZM88.9401 34.8759C88.5828 34.8759 88.2708 34.8093 88.0041 34.6759C87.7374 34.5426 87.5294 34.3426 87.3801 34.0759C87.2361 33.8093 87.1641 33.4759 87.1641 33.0759V30.6359H87.7321V33.0119C87.7321 33.4599 87.8414 33.7986 88.0601 34.0279C88.2841 34.2519 88.5961 34.3639 88.9961 34.3639C89.2894 34.3639 89.5428 34.3053 89.7561 34.1879C89.9748 34.0653 90.1401 33.8893 90.2521 33.6599C90.3694 33.4306 90.4281 33.1559 90.4281 32.8359V30.6359H90.9961V34.8359H90.4521V33.6839L90.5401 33.8919C90.4068 34.2013 90.1988 34.4439 89.9161 34.6199C89.6388 34.7906 89.3134 34.8759 88.9401 34.8759ZM92.5791 34.8359V28.8999H93.1471V34.8359H92.5791ZM98.9653 30.5959C99.3066 30.5959 99.6053 30.6626 99.8613 30.7959C100.123 30.9239 100.325 31.1213 100.469 31.3879C100.619 31.6546 100.693 31.9906 100.693 32.3959V34.8359H100.125V32.4519C100.125 32.0093 100.013 31.6759 99.7893 31.4519C99.5706 31.2226 99.2613 31.1079 98.8613 31.1079C98.5626 31.1079 98.3013 31.1693 98.0773 31.2919C97.8586 31.4093 97.688 31.5826 97.5653 31.8119C97.448 32.0359 97.3893 32.3079 97.3893 32.6279V34.8359H96.8213V30.6359H97.3653V31.7879L97.2773 31.5719C97.4106 31.2679 97.624 31.0306 97.9173 30.8599C98.2106 30.6839 98.56 30.5959 98.9653 30.5959ZM104.86 34.8359V33.9079L104.836 33.7559V32.2039C104.836 31.8466 104.734 31.5719 104.532 31.3799C104.334 31.1879 104.038 31.0919 103.644 31.0919C103.372 31.0919 103.113 31.1373 102.868 31.2279C102.622 31.3186 102.414 31.4386 102.244 31.5879L101.988 31.1639C102.201 30.9826 102.457 30.8439 102.756 30.7479C103.054 30.6466 103.369 30.5959 103.7 30.5959C104.244 30.5959 104.662 30.7319 104.956 31.0039C105.254 31.2706 105.404 31.6786 105.404 32.2279V34.8359H104.86ZM103.412 34.8759C103.097 34.8759 102.822 34.8253 102.588 34.7239C102.358 34.6173 102.182 34.4733 102.06 34.2919C101.937 34.1053 101.876 33.8919 101.876 33.6519C101.876 33.4333 101.926 33.2359 102.028 33.0599C102.134 32.8786 102.305 32.7346 102.54 32.6279C102.78 32.5159 103.1 32.4599 103.5 32.4599H104.948V32.8839H103.516C103.11 32.8839 102.828 32.9559 102.668 33.0999C102.513 33.2439 102.436 33.4226 102.436 33.6359C102.436 33.8759 102.529 34.0679 102.716 34.2119C102.902 34.3559 103.164 34.4279 103.5 34.4279C103.82 34.4279 104.094 34.3559 104.324 34.2119C104.558 34.0626 104.729 33.8493 104.836 33.5719L104.964 33.9639C104.857 34.2413 104.67 34.4626 104.404 34.6279C104.142 34.7933 103.812 34.8759 103.412 34.8759ZM108.274 34.8759C107.88 34.8759 107.576 34.7693 107.362 34.5559C107.149 34.3426 107.042 34.0413 107.042 33.6519V29.7079H107.61V33.6199C107.61 33.8653 107.672 34.0546 107.794 34.1879C107.922 34.3213 108.104 34.3879 108.338 34.3879C108.589 34.3879 108.797 34.3159 108.962 34.1719L109.162 34.5799C109.05 34.6813 108.914 34.7559 108.754 34.8039C108.6 34.8519 108.44 34.8759 108.274 34.8759ZM106.29 31.1079V30.6359H108.89V31.1079H106.29ZM107.866 36.9319L108.09 36.0679L108.146 36.2919C108.045 36.2919 107.962 36.2626 107.898 36.2039C107.834 36.1453 107.802 36.0706 107.802 35.9799C107.802 35.8893 107.834 35.8146 107.898 35.7559C107.962 35.6973 108.045 35.6679 108.146 35.6679C108.253 35.6679 108.336 35.6973 108.394 35.7559C108.458 35.8199 108.49 35.8946 108.49 35.9799C108.49 36.0333 108.482 36.0893 108.466 36.1479C108.456 36.2066 108.434 36.2706 108.402 36.3399L108.178 36.9319H107.866ZM110.196 34.8359V30.6359H110.764V34.8359H110.196ZM110.484 29.7079C110.367 29.7079 110.268 29.6679 110.188 29.5879C110.108 29.5079 110.068 29.4119 110.068 29.2999C110.068 29.1879 110.108 29.0946 110.188 29.0199C110.268 28.9399 110.367 28.8999 110.484 28.8999C110.602 28.8999 110.7 28.9373 110.78 29.0119C110.86 29.0866 110.9 29.1799 110.9 29.2919C110.9 29.4093 110.86 29.5079 110.78 29.5879C110.706 29.6679 110.607 29.7079 110.484 29.7079ZM114.057 34.8759C113.651 34.8759 113.286 34.7853 112.961 34.6039C112.641 34.4173 112.387 34.1639 112.201 33.8439C112.014 33.5186 111.921 33.1479 111.921 32.7319C111.921 32.3106 112.014 31.9399 112.201 31.6199C112.387 31.2999 112.641 31.0493 112.961 30.8679C113.281 30.6866 113.646 30.5959 114.057 30.5959C114.473 30.5959 114.841 30.6866 115.161 30.8679C115.486 31.0493 115.739 31.2999 115.921 31.6199C116.107 31.9399 116.201 32.3106 116.201 32.7319C116.201 33.1479 116.107 33.5186 115.921 33.8439C115.739 34.1639 115.486 34.4173 115.161 34.6039C114.835 34.7853 114.467 34.8759 114.057 34.8759ZM114.057 34.3719C114.361 34.3719 114.63 34.3053 114.865 34.1719C115.099 34.0333 115.283 33.8413 115.417 33.5959C115.555 33.3453 115.625 33.0573 115.625 32.7319C115.625 32.4013 115.555 32.1133 115.417 31.8679C115.283 31.6226 115.099 31.4333 114.865 31.2999C114.63 31.1613 114.363 31.0919 114.065 31.0919C113.766 31.0919 113.499 31.1613 113.265 31.2999C113.03 31.4333 112.843 31.6226 112.705 31.8679C112.566 32.1133 112.497 32.4013 112.497 32.7319C112.497 33.0573 112.566 33.3453 112.705 33.5959C112.843 33.8413 113.03 34.0333 113.265 34.1719C113.499 34.3053 113.763 34.3719 114.057 34.3719ZM119.504 30.5959C119.846 30.5959 120.144 30.6626 120.4 30.7959C120.662 30.9239 120.864 31.1213 121.008 31.3879C121.158 31.6546 121.232 31.9906 121.232 32.3959V34.8359H120.664V32.4519C120.664 32.0093 120.552 31.6759 120.328 31.4519C120.11 31.2226 119.8 31.1079 119.4 31.1079C119.102 31.1079 118.84 31.1693 118.616 31.2919C118.398 31.4093 118.227 31.5826 118.104 31.8119C117.987 32.0359 117.928 32.3079 117.928 32.6279V34.8359H117.36V30.6359H117.904V31.7879L117.816 31.5719C117.95 31.2679 118.163 31.0306 118.456 30.8599C118.75 30.6839 119.099 30.5959 119.504 30.5959ZM125.399 34.8359V33.9079L125.375 33.7559V32.2039C125.375 31.8466 125.273 31.5719 125.071 31.3799C124.873 31.1879 124.577 31.0919 124.183 31.0919C123.911 31.0919 123.652 31.1373 123.407 31.2279C123.161 31.3186 122.953 31.4386 122.783 31.5879L122.527 31.1639C122.74 30.9826 122.996 30.8439 123.295 30.7479C123.593 30.6466 123.908 30.5959 124.239 30.5959C124.783 30.5959 125.201 30.7319 125.495 31.0039C125.793 31.2706 125.943 31.6786 125.943 32.2279V34.8359H125.399ZM123.951 34.8759C123.636 34.8759 123.361 34.8253 123.127 34.7239C122.897 34.6173 122.721 34.4733 122.599 34.2919C122.476 34.1053 122.415 33.8919 122.415 33.6519C122.415 33.4333 122.465 33.2359 122.567 33.0599C122.673 32.8786 122.844 32.7346 123.079 32.6279C123.319 32.5159 123.639 32.4599 124.039 32.4599H125.487V32.8839H124.055C123.649 32.8839 123.367 32.9559 123.207 33.0999C123.052 33.2439 122.975 33.4226 122.975 33.6359C122.975 33.8759 123.068 34.0679 123.255 34.2119C123.441 34.3559 123.703 34.4279 124.039 34.4279C124.359 34.4279 124.633 34.3559 124.863 34.2119C125.097 34.0626 125.268 33.8493 125.375 33.5719L125.503 33.9639C125.396 34.2413 125.209 34.4626 124.943 34.6279C124.681 34.7933 124.351 34.8759 123.951 34.8759ZM127.485 34.8359V28.8999H128.053V34.8359H127.485ZM133.4 34.8759C133 34.8759 132.64 34.7853 132.32 34.6039C132.005 34.4226 131.757 34.1719 131.576 33.8519C131.394 33.5266 131.304 33.1533 131.304 32.7319C131.304 32.3053 131.394 31.9319 131.576 31.6119C131.757 31.2919 132.005 31.0439 132.32 30.8679C132.64 30.6866 133 30.5959 133.4 30.5959C133.768 30.5959 134.096 30.6786 134.384 30.8439C134.677 31.0093 134.909 31.2519 135.08 31.5719C135.256 31.8866 135.344 32.2733 135.344 32.7319C135.344 33.1853 135.258 33.5719 135.088 33.8919C134.917 34.2119 134.685 34.4573 134.392 34.6279C134.104 34.7933 133.773 34.8759 133.4 34.8759ZM133.44 34.3719C133.738 34.3719 134.005 34.3053 134.24 34.1719C134.48 34.0333 134.666 33.8413 134.8 33.5959C134.938 33.3453 135.008 33.0573 135.008 32.7319C135.008 32.4013 134.938 32.1133 134.8 31.8679C134.666 31.6226 134.48 31.4333 134.24 31.2999C134.005 31.1613 133.738 31.0919 133.44 31.0919C133.146 31.0919 132.882 31.1613 132.648 31.2999C132.413 31.4333 132.226 31.6226 132.088 31.8679C131.949 32.1133 131.88 32.4013 131.88 32.7319C131.88 33.0573 131.949 33.3453 132.088 33.5959C132.226 33.8413 132.413 34.0333 132.648 34.1719C132.882 34.3053 133.146 34.3719 133.44 34.3719ZM135.024 34.8359V33.5719L135.08 32.7239L135 31.8759V28.8999H135.568V34.8359H135.024ZM138.933 34.8759C138.496 34.8759 138.112 34.7853 137.781 34.6039C137.451 34.4173 137.192 34.1639 137.005 33.8439C136.819 33.5186 136.725 33.1479 136.725 32.7319C136.725 32.3159 136.813 31.9479 136.989 31.6279C137.171 31.3079 137.416 31.0573 137.725 30.8759C138.04 30.6893 138.392 30.5959 138.781 30.5959C139.176 30.5959 139.525 30.6866 139.829 30.8679C140.139 31.0439 140.381 31.2946 140.557 31.6199C140.733 31.9399 140.821 32.3106 140.821 32.7319C140.821 32.7586 140.819 32.7879 140.813 32.8199C140.813 32.8466 140.813 32.8759 140.813 32.9079H137.157V32.4839H140.509L140.285 32.6519C140.285 32.3479 140.219 32.0786 140.085 31.8439C139.957 31.6039 139.781 31.4173 139.557 31.2839C139.333 31.1506 139.075 31.0839 138.781 31.0839C138.493 31.0839 138.235 31.1506 138.005 31.2839C137.776 31.4173 137.597 31.6039 137.469 31.8439C137.341 32.0839 137.277 32.3586 137.277 32.6679V32.7559C137.277 33.0759 137.347 33.3586 137.485 33.6039C137.629 33.8439 137.827 34.0333 138.077 34.1719C138.333 34.3053 138.624 34.3719 138.949 34.3719C139.205 34.3719 139.443 34.3266 139.661 34.2359C139.885 34.1453 140.077 34.0066 140.237 33.8199L140.557 34.1879C140.371 34.4119 140.136 34.5826 139.853 34.6999C139.576 34.8173 139.269 34.8759 138.933 34.8759ZM145.199 34.8759C144.853 34.8759 144.525 34.8279 144.215 34.7319C143.906 34.6306 143.663 34.5053 143.487 34.3559L143.743 33.9079C143.914 34.0359 144.133 34.1479 144.399 34.2439C144.666 34.3346 144.946 34.3799 145.239 34.3799C145.639 34.3799 145.927 34.3186 146.103 34.1959C146.279 34.0679 146.367 33.8999 146.367 33.6919C146.367 33.5373 146.317 33.4173 146.215 33.3319C146.119 33.2413 145.991 33.1746 145.831 33.1319C145.671 33.0839 145.493 33.0439 145.295 33.0119C145.098 32.9799 144.901 32.9426 144.703 32.8999C144.511 32.8573 144.335 32.7959 144.175 32.7159C144.015 32.6306 143.885 32.5159 143.783 32.3719C143.687 32.2279 143.639 32.0359 143.639 31.7959C143.639 31.5666 143.703 31.3613 143.831 31.1799C143.959 30.9986 144.146 30.8573 144.391 30.7559C144.642 30.6493 144.946 30.5959 145.303 30.5959C145.575 30.5959 145.847 30.6333 146.119 30.7079C146.391 30.7773 146.615 30.8706 146.791 30.9879L146.543 31.4439C146.357 31.3159 146.157 31.2253 145.943 31.1719C145.73 31.1133 145.517 31.0839 145.303 31.0839C144.925 31.0839 144.645 31.1506 144.463 31.2839C144.287 31.4119 144.199 31.5773 144.199 31.7799C144.199 31.9399 144.247 32.0653 144.343 32.1559C144.445 32.2466 144.575 32.3186 144.735 32.3719C144.901 32.4199 145.079 32.4599 145.271 32.4919C145.469 32.5239 145.663 32.5639 145.855 32.6119C146.053 32.6546 146.231 32.7159 146.391 32.7959C146.557 32.8706 146.687 32.9799 146.783 33.1239C146.885 33.2626 146.935 33.4466 146.935 33.6759C146.935 33.9213 146.866 34.1346 146.727 34.3159C146.594 34.4919 146.397 34.6306 146.135 34.7319C145.879 34.8279 145.567 34.8759 145.199 34.8759ZM149.306 34.8759C148.911 34.8759 148.607 34.7693 148.394 34.5559C148.18 34.3426 148.074 34.0413 148.074 33.6519V29.7079H148.642V33.6199C148.642 33.8653 148.703 34.0546 148.826 34.1879C148.954 34.3213 149.135 34.3879 149.37 34.3879C149.62 34.3879 149.828 34.3159 149.994 34.1719L150.194 34.5799C150.082 34.6813 149.946 34.7559 149.786 34.8039C149.631 34.8519 149.471 34.8759 149.306 34.8759ZM147.322 31.1079V30.6359H149.922V31.1079H147.322ZM152.964 34.8759C152.606 34.8759 152.294 34.8093 152.028 34.6759C151.761 34.5426 151.553 34.3426 151.404 34.0759C151.26 33.8093 151.188 33.4759 151.188 33.0759V30.6359H151.756V33.0119C151.756 33.4599 151.865 33.7986 152.084 34.0279C152.308 34.2519 152.62 34.3639 153.02 34.3639C153.313 34.3639 153.566 34.3053 153.78 34.1879C153.998 34.0653 154.164 33.8893 154.276 33.6599C154.393 33.4306 154.452 33.1559 154.452 32.8359V30.6359H155.02V34.8359H154.476V33.6839L154.564 33.8919C154.43 34.2013 154.222 34.4439 153.94 34.6199C153.662 34.7906 153.337 34.8759 152.964 34.8759ZM158.275 34.8759C157.875 34.8759 157.515 34.7853 157.195 34.6039C156.88 34.4226 156.632 34.1719 156.451 33.8519C156.269 33.5266 156.179 33.1533 156.179 32.7319C156.179 32.3053 156.269 31.9319 156.451 31.6119C156.632 31.2919 156.88 31.0439 157.195 30.8679C157.515 30.6866 157.875 30.5959 158.275 30.5959C158.643 30.5959 158.971 30.6786 159.259 30.8439C159.552 31.0093 159.784 31.2519 159.955 31.5719C160.131 31.8866 160.219 32.2733 160.219 32.7319C160.219 33.1853 160.133 33.5719 159.963 33.8919C159.792 34.2119 159.56 34.4573 159.267 34.6279C158.979 34.7933 158.648 34.8759 158.275 34.8759ZM158.315 34.3719C158.613 34.3719 158.88 34.3053 159.115 34.1719C159.355 34.0333 159.541 33.8413 159.675 33.5959C159.813 33.3453 159.883 33.0573 159.883 32.7319C159.883 32.4013 159.813 32.1133 159.675 31.8679C159.541 31.6226 159.355 31.4333 159.115 31.2999C158.88 31.1613 158.613 31.0919 158.315 31.0919C158.021 31.0919 157.757 31.1613 157.523 31.2999C157.288 31.4333 157.101 31.6226 156.963 31.8679C156.824 32.1133 156.755 32.4013 156.755 32.7319C156.755 33.0573 156.824 33.3453 156.963 33.5959C157.101 33.8413 157.288 34.0333 157.523 34.1719C157.757 34.3053 158.021 34.3719 158.315 34.3719ZM159.899 34.8359V33.5719L159.955 32.7239L159.875 31.8759V28.8999H160.443V34.8359H159.899ZM162.024 34.8359V30.6359H162.592V34.8359H162.024ZM162.312 29.7079C162.195 29.7079 162.096 29.6679 162.016 29.5879C161.936 29.5079 161.896 29.4119 161.896 29.2999C161.896 29.1879 161.936 29.0946 162.016 29.0199C162.096 28.9399 162.195 28.8999 162.312 28.8999C162.43 28.8999 162.528 28.9373 162.608 29.0119C162.688 29.0866 162.728 29.1799 162.728 29.2919C162.728 29.4093 162.688 29.5079 162.608 29.5879C162.534 29.6679 162.435 29.7079 162.312 29.7079ZM164.173 34.8359V30.6359H164.741V34.8359H164.173ZM164.461 29.7079C164.344 29.7079 164.245 29.6679 164.165 29.5879C164.085 29.5079 164.045 29.4119 164.045 29.2999C164.045 29.1879 164.085 29.0946 164.165 29.0199C164.245 28.9399 164.344 28.8999 164.461 28.8999C164.578 28.8999 164.677 28.9373 164.757 29.0119C164.837 29.0866 164.877 29.1799 164.877 29.2919C164.877 29.4093 164.837 29.5079 164.757 29.5879C164.682 29.6679 164.584 29.7079 164.461 29.7079Z" fill="black"/>
</svg>
